<svg width="1593" height="357" viewBox="0 0 1593 357" fill="none" xmlns="http://www.w3.org/2000/svg">
<path d="M624.387 192.246C626.909 192.246 629.053 194.39 629.053 196.912V207.001C629.053 234.368 620.351 256.563 602.821 273.588C585.292 290.614 562.718 299.063 534.973 299.063C505.463 299.063 480.871 289.479 461.449 270.183C441.902 250.888 432.191 227.431 432.191 199.687C432.191 171.816 441.776 148.107 461.071 128.812C480.366 109.516 504.202 99.8057 532.703 99.8057C550.611 99.8057 566.879 103.841 581.761 112.039C595.002 119.353 605.596 128.685 613.541 140.288C615.054 142.558 614.298 145.584 612.028 146.972L587.688 160.718C585.67 161.853 583.022 161.348 581.635 159.457C577.221 153.151 571.041 147.981 563.222 143.819C554.016 138.9 543.801 136.378 532.451 136.378C514.164 136.378 499.157 142.306 487.429 154.286C475.7 166.267 469.773 181.4 469.773 199.56C469.773 217.595 475.7 232.602 487.681 244.33C499.662 256.059 515.426 261.986 535.225 261.986C549.854 261.986 561.961 258.707 571.546 252.275C579.112 247.105 584.913 240.421 588.571 232.224C589.958 229.071 587.814 225.54 584.409 225.54H537.747C535.225 225.54 533.081 223.396 533.081 220.874V196.786C533.081 194.264 535.225 192.12 537.747 192.12H624.387V192.246Z" fill="#088952"/>
<path d="M689.461 165.507C689.461 169.669 694.631 171.813 697.406 168.786C699.802 166.264 702.577 163.994 705.729 162.228C711.909 158.697 718.593 156.553 725.907 155.923C728.682 155.67 731.078 157.814 731.078 160.589V190.099C731.078 192.747 728.934 194.765 726.286 194.765C717.458 194.513 709.387 196.909 702.198 201.701C693.749 207.376 689.461 216.709 689.461 229.95V290.737C689.461 293.259 687.317 295.403 684.795 295.403H658.816C656.293 295.403 654.149 293.259 654.149 290.737V162.985C654.149 160.463 656.293 158.319 658.816 158.319H684.795C687.317 158.319 689.461 160.463 689.461 162.985V165.507Z" fill="#088952"/>
<path d="M855.175 158.321H881.155C883.677 158.321 885.821 160.465 885.821 162.987V290.613C885.821 293.135 883.677 295.279 881.155 295.279H855.175C852.653 295.279 850.509 293.135 850.509 290.613V290.487C850.509 286.577 845.969 284.433 842.943 286.83C833.232 294.901 820.873 298.936 805.865 298.936C787.579 298.936 771.941 292 758.952 278.002C745.962 264.003 739.404 246.978 739.404 226.674C739.404 206.37 745.962 189.345 758.952 175.346C771.941 161.348 787.705 154.412 805.865 154.412C820.873 154.412 833.106 158.447 842.943 166.645C845.969 169.167 850.509 167.023 850.509 162.987V162.861C850.509 160.339 852.527 158.321 855.175 158.321ZM785.309 254.545C792.371 261.733 801.452 265.39 812.423 265.39C823.395 265.39 832.475 261.733 839.664 254.545C846.852 247.356 850.509 238.024 850.509 226.8C850.509 215.45 846.852 206.244 839.664 199.055C832.475 191.867 823.395 188.21 812.423 188.21C801.452 188.21 792.498 191.867 785.309 199.055C778.247 206.244 774.59 215.576 774.59 226.8C774.716 238.024 778.247 247.356 785.309 254.545Z" fill="#088952"/>
<path d="M997.553 154.536C1015.97 154.536 1031.73 161.472 1044.72 175.471C1057.71 189.469 1064.27 206.495 1064.27 226.799C1064.27 247.103 1057.71 264.128 1044.72 278.126C1031.73 292.125 1015.97 299.061 997.553 299.061C982.672 299.061 970.439 295.025 960.855 286.954C957.828 284.432 953.288 286.576 953.288 290.485C953.288 293.008 951.144 295.152 948.622 295.152H922.643C920.12 295.152 917.977 293.008 917.977 290.485V108.253C917.977 105.731 920.12 103.587 922.643 103.587H948.622C951.144 103.587 953.288 105.731 953.288 108.253V162.986C953.288 166.895 957.828 169.039 960.855 166.517C970.313 158.446 982.546 154.536 997.553 154.536ZM963.881 254.543C970.944 261.732 980.024 265.389 990.996 265.389C1001.97 265.389 1011.05 261.732 1018.24 254.543C1025.42 247.355 1029.08 238.023 1029.08 226.799C1029.08 215.449 1025.42 206.242 1018.24 199.054C1011.05 191.866 1001.97 188.208 990.996 188.208C980.024 188.208 971.07 191.866 963.881 199.054C956.819 206.242 953.162 215.575 953.162 226.799C953.162 238.023 956.693 247.355 963.881 254.543Z" fill="#088952"/>
<path d="M1156.33 299.06C1137.29 299.06 1121.4 294.772 1108.41 286.322C1096.55 278.63 1087.98 268.288 1082.55 255.551C1081.67 253.407 1082.43 250.885 1084.45 249.75L1108.79 235.499C1111.06 234.112 1114.08 234.995 1115.34 237.517C1123.29 253.912 1137.29 262.235 1157.47 262.235C1168.06 262.235 1175.75 260.343 1180.8 256.434C1185.84 252.524 1188.24 247.732 1188.24 241.931C1188.24 235.121 1185.21 229.95 1179.16 226.167C1173.1 222.383 1162.38 218.348 1146.87 213.934C1138.3 211.412 1130.98 208.889 1125.05 206.241C1119.13 203.719 1113.2 200.314 1107.27 196.026C1101.35 191.738 1096.81 186.315 1093.78 179.757C1090.63 173.2 1089.11 165.507 1089.11 156.805C1089.11 139.528 1095.29 125.655 1107.65 115.314C1120.01 104.973 1134.77 99.8022 1152.17 99.8022C1167.68 99.8022 1181.3 103.586 1193.16 111.152C1203.75 117.962 1212.2 127.169 1218.63 138.771C1219.89 141.041 1219.01 143.815 1216.86 145.077L1193.16 158.697C1190.89 159.958 1188.11 159.201 1186.85 157.057C1179.16 143.437 1167.55 136.501 1152.29 136.501C1144.48 136.501 1138.3 138.266 1133.76 141.798C1129.34 145.329 1127.07 149.995 1127.07 155.67C1127.07 161.723 1129.59 166.516 1134.64 170.299C1139.68 174.082 1149.27 178.118 1163.52 182.532C1169.32 184.297 1173.73 185.811 1176.76 186.82C1179.79 187.829 1183.82 189.342 1189.12 191.486C1194.29 193.63 1198.33 195.521 1201.23 197.413C1204 199.179 1207.28 201.701 1210.94 204.854C1214.59 208.007 1217.37 211.159 1219.26 214.438C1221.15 217.717 1222.79 221.753 1224.18 226.293C1225.57 230.959 1226.2 236.004 1226.2 241.426C1226.2 259.082 1219.76 273.207 1206.9 283.548C1193.66 293.763 1176.89 299.06 1156.33 299.06Z" fill="#088952"/>
<path d="M1318.38 192.242H1296.82C1294.3 192.242 1292.15 194.386 1292.15 196.909V249.245C1292.15 254.037 1293.29 257.443 1295.68 259.586C1298.08 261.73 1301.48 262.991 1306.02 263.244C1309.43 263.496 1313.46 263.496 1318.26 263.37C1320.91 263.244 1323.05 265.388 1323.05 268.036V290.988C1323.05 293.385 1321.16 295.402 1318.76 295.655C1296.69 297.672 1281.05 295.276 1271.72 288.34C1261.76 281.026 1256.84 268.036 1256.84 249.245V196.909C1256.84 194.386 1254.7 192.242 1252.17 192.242H1237.67C1235.15 192.242 1233 190.098 1233 187.576V162.984C1233 160.462 1235.15 158.318 1237.67 158.318H1252.17C1254.7 158.318 1256.84 156.174 1256.84 153.652V134.105C1256.84 132.087 1258.23 130.195 1260.12 129.691L1286.1 121.872C1289.12 120.989 1292.15 123.259 1292.15 126.286V153.652C1292.15 156.174 1294.3 158.318 1296.82 158.318H1318.38C1320.91 158.318 1323.05 160.462 1323.05 162.984V187.576C1323.05 190.225 1320.91 192.242 1318.38 192.242Z" fill="#088952"/>
<path d="M1452.44 158.321H1478.42C1480.94 158.321 1483.09 160.465 1483.09 162.987V290.613C1483.09 293.135 1480.94 295.279 1478.42 295.279H1452.44C1449.92 295.279 1447.77 293.135 1447.77 290.613V290.487C1447.77 286.577 1443.23 284.433 1440.21 286.83C1430.5 294.901 1418.14 298.936 1403.13 298.936C1384.84 298.936 1369.21 292 1356.22 278.002C1343.23 264.003 1336.67 246.978 1336.67 226.674C1336.67 206.37 1343.23 189.345 1356.22 175.346C1369.21 161.348 1384.97 154.412 1403.13 154.412C1418.14 154.412 1430.37 158.447 1440.21 166.645C1443.23 169.167 1447.77 167.023 1447.77 162.987V162.861C1447.77 160.339 1449.92 158.321 1452.44 158.321ZM1382.7 254.545C1389.76 261.733 1398.84 265.39 1409.82 265.39C1420.79 265.39 1429.87 261.733 1437.06 254.545C1444.24 247.356 1447.9 238.024 1447.9 226.8C1447.9 215.45 1444.24 206.244 1437.06 199.055C1429.87 191.867 1420.79 188.21 1409.82 188.21C1398.84 188.21 1389.89 191.867 1382.7 199.055C1375.64 206.244 1371.98 215.576 1371.98 226.8C1371.98 238.024 1375.51 247.356 1382.7 254.545Z" fill="#088952"/>
<path d="M1550.43 165.507C1550.43 169.669 1555.6 171.813 1558.38 168.786C1560.77 166.264 1563.55 163.994 1566.7 162.228C1572.88 158.697 1579.56 156.553 1586.88 155.923C1589.65 155.67 1592.05 157.814 1592.05 160.589V190.099C1592.05 192.747 1589.9 194.765 1587.26 194.765C1578.43 194.513 1570.36 196.909 1563.17 201.701C1554.72 207.376 1550.43 216.709 1550.43 229.95V290.737C1550.43 293.259 1548.29 295.403 1545.76 295.403H1519.79C1517.26 295.403 1515.12 293.259 1515.12 290.737V162.985C1515.12 160.463 1517.26 158.319 1519.79 158.319H1545.76C1548.29 158.319 1550.43 160.463 1550.43 162.985V165.507Z" fill="#088952"/>
<path d="M220.745 150.956H171.265C169.301 150.956 167.338 152.531 167.338 154.895V212.008C167.338 213.977 168.908 215.947 171.265 215.947H202.68C204.644 215.947 206.607 214.371 206.607 212.008V194.283C206.607 192.314 208.178 190.344 210.534 190.344H254.909C258.444 190.344 260.015 194.677 257.658 197.04L245.877 208.463C242.736 211.614 241.165 216.341 241.95 221.067L251.375 279.756C251.768 282.907 248.626 285.27 245.877 283.695L193.256 256.123C189.329 254.153 184.224 254.153 180.297 256.123L127.675 283.695C124.926 285.27 121.392 282.907 122.177 279.756L132.387 221.067C133.173 216.341 131.602 211.614 128.46 208.463L85.6561 167.105C83.2999 164.742 84.478 160.803 87.6196 160.409L146.132 151.744C150.844 150.956 154.771 148.199 156.735 143.866L183.046 90.6917C184.616 87.9345 188.543 87.9345 190.114 90.6917L207.393 125.747C209.749 130.474 214.854 133.625 219.959 133.625H342.089C345.23 133.625 345.623 129.292 342.481 128.898L249.804 115.506C247.055 115.113 245.092 113.537 243.914 111.174L190.507 2.06789C188.936 -0.689296 185.009 -0.689296 183.438 2.06789L129.638 111.174C128.46 113.537 126.104 115.113 123.748 115.506L3.58203 132.837C0.0477347 133.625 -1.13036 137.564 1.22583 139.533L88.405 224.612C90.3685 226.582 91.1539 228.945 90.7612 231.702L70.3409 351.837C69.9482 354.988 73.0898 357.351 75.8387 355.775L183.438 299.056C185.794 297.875 188.543 297.875 190.899 299.056L298.499 355.775C301.248 357.351 304.782 354.988 303.997 351.837L283.576 231.702C283.184 229.339 283.969 226.582 285.933 224.612L354.655 157.652C357.011 155.289 355.44 150.956 351.906 150.956H220.745Z" fill="#088952"/>
</svg>
