<?xml version="1.0" encoding="UTF-8"?>
<!DOCTYPE svg PUBLIC "-//W3C//DTD SVG 1.1//EN" "http://www.w3.org/Graphics/SVG/1.1/DTD/svg11.dtd">
<!-- Creator: CorelDRAW -->
<svg xmlns="http://www.w3.org/2000/svg" xml:space="preserve" width="2.77777in" height="0.61111in" version="1.1" style="shape-rendering:geometricPrecision; text-rendering:geometricPrecision; image-rendering:optimizeQuality; fill-rule:evenodd; clip-rule:evenodd"
viewBox="0 0 3328.24 732.21"
 xmlns:xlink="http://www.w3.org/1999/xlink"
 xmlns:xodm="http://www.corel.com/coreldraw/odm/2003">
 <defs>
  <style type="text/css">
   <![CDATA[
    .fil0 {fill:#000066}
   ]]>
  </style>
 </defs>
 <g id="Layer_x0020_1">
  <metadata id="CorelCorpID_0Corel-Layer"/>
  <g id="_1819363477984">
   <path class="fil0" d="M-0 266.26c19.62,73.49 119.78,149.57 183.05,183.06 0,106.03 -33.28,168.46 -33.28,282.9 69.79,-16.26 193.64,-102.63 236.19,-105.72 52.19,-3.79 169.73,87.85 246.4,105.72 0,-114.44 -33.28,-176.87 -33.28,-282.9 65.28,-43.71 105.09,-66.4 149.77,-133.13l-399.39 0 0 133.13 83.21 0 0 -49.92 99.85 0c-64.74,96.68 -16.64,54.7 -16.64,183.05 -127.2,-67.31 -125.12,-65.88 -249.62,0 0,-81.97 29.65,-101.64 3.5,-152.19 -11.57,-22.36 -63.14,-62.23 -86.71,-97.43 135.65,-31.6 165.58,-3.32 199.7,-149.77l50.76 82.77 248.79 -16.2c-185.28,0 -166.85,-14.17 -243.2,-172.83 -30.11,-62.57 -13.12,-60.81 -72.98,-76.79 -54.71,234.84 -126.04,266.26 -366.11,266.26z"/>
   <path class="fil0" d="M898.63 399.39c0,65.37 22.02,112.11 61.28,155.05 81.08,88.7 354.75,122.25 354.75,-155.05l-199.69 0 0 66.56 116.49 0c-69.24,130.86 -249.62,59.09 -249.62,-49.93 0,-93.43 57.41,-133.13 133.13,-133.13 105.23,0 94.9,97.6 166.41,0 -115.21,-157.25 -382.74,-73.25 -382.74,116.49z"/>
   <path class="fil0" d="M2130.08 532.52c-117.54,27.38 -133.13,3.78 -133.13,-83.21 0,-94.04 101.33,-49.92 133.13,-49.92 7.99,33.39 31.64,62.32 0,133.13zm-216.34 83.21l199.69 0c130.43,0 209.34,-358.81 -116.49,-282.9l0 -116.49 -83.2 0 0 399.39z"/>
   <path class="fil0" d="M2279.84 316.18c0,181.09 161.76,57.61 199.7,199.69 -95.15,53.45 -135.59,-20.61 -183.06,-33.28l-29.95 36.61c30.32,135.3 296.22,140.23 296.22,-36.61 0,-71.57 -137.07,-118.54 -199.7,-133.13l0 -66.56c164.13,0 105.02,106.51 183.06,0 -98.4,-146.94 -266.26,-84.52 -266.26,33.28z"/>
   <path class="fil0" d="M2878.93 482.59c0,-131.88 133.13,-131.88 133.13,0 0,88.69 -133.13,88.69 -133.13,0zm-83.21 -33.28c0,192.41 97.18,161.9 299.54,166.41l0 -299.54c-40.47,0.9 -64.42,9.47 -85.44,9.98 -20.25,0.5 -214.1,-54.93 -214.1,123.15z"/>
   <path class="fil0" d="M1614.2 482.59c42.29,-181.54 166.41,-74.61 166.41,-16.64 0,24.19 -66.61,165.68 -166.41,16.64zm-66.56 -49.92c0,229.25 118.3,175.19 201.75,173.23 41.93,-0.98 36.13,8.45 97.79,9.83l0 -299.54 -82.33 18.59c-30.9,0.75 -98.28,-52.26 -170.07,11.91 -12.86,11.5 -47.13,62.6 -47.13,85.99z"/>
   <path class="fil0" d="M2629.31 316.18l-49.93 0 0 83.21 49.93 0c0,159.8 -38.23,216.34 133.13,216.34l0 -66.57c-78.74,-21.02 -66.56,-35.57 -66.56,-149.77l66.56 0 0 -83.21 -66.56 0 0 -66.56c-57.45,4.78 -66.56,5.08 -66.56,66.56z"/>
   <path class="fil0" d="M3161.83 615.73l83.21 0 0 -183.06c53.22,-35.64 11.66,-27.33 83.21,-33.28l0 -83.21c-49.16,4.09 -22.99,6.02 -40.87,10.75 -57.57,15.2 -12.78,8.59 -64.61,-3.29 -31.7,-7.27 -24.44,-7.46 -60.94,-7.46l0 299.54z"/>
   <path class="fil0" d="M1364.58 615.73c120.34,-2.68 83.21,-52.74 83.21,-183.06 53.22,-35.64 11.66,-27.33 83.21,-33.28l0 -83.21c-195.2,45.47 -11.92,3.44 -166.41,0l0 299.54z"/>
  </g>
 </g>
</svg>
